<?xml version="1.0" encoding="UTF-8"?>
<!DOCTYPE svg PUBLIC "-//W3C//DTD SVG 1.0//EN" "http://www.w3.org/TR/2001/REC-SVG-20010904/DTD/svg10.dtd">
<!-- Creator: CorelDRAW 2018 (64 Bit Versão de avaliação) -->
<svg xmlns="http://www.w3.org/2000/svg" xml:space="preserve" width="384.725mm" height="110.913mm" version="1.0" style="shape-rendering:geometricPrecision; text-rendering:geometricPrecision; image-rendering:optimizeQuality; fill-rule:evenodd; clip-rule:evenodd"
viewBox="0 0 38472.52 11091.32"
 xmlns:xlink="http://www.w3.org/1999/xlink">
 <defs>
  <style type="text/css">
   <![CDATA[
    .str0 {stroke:#C1FF00;stroke-width:100;stroke-miterlimit:22.9256;stroke-dasharray:200.000000 500.000000}
    .fil5 {fill:none}
    .fil3 {fill:black}
    .fil0 {fill:black}
    .fil2 {fill:black}
    .fil1 {fill:#C1FF00}
    .fil4 {fill:black;fill-rule:nonzero}
   ]]>
  </style>
    <clipPath id="id0">
     <rect x="10732.32" y="-1.33" width="18479.34" height="11093.98"/>
    </clipPath>
     <clipPath id="id1">
      <rect x="10732.32" y="-1.33" width="18479.34" height="11093.98"/>
     </clipPath>
 </defs>
 <g id="Camada_x0020_1">
  <metadata id="CorelCorpID_0Corel-Layer"/>
  <g id="_2431009094096">
   <rect class="fil0" x="10732.3" y="-1.34" width="18479.34" height="11093.97"/>
   <g style="clip-path:url(#id0)">
    <image style="clip-path:url(#id1)" x="1597.38" y="-5143.51" width="35277.78" height="21378.32" xlink:href="Atua+CargoIntegraçãoOriginal_Images\Atua+CargoIntegraçãoOriginal_ImgID1.png"/>
   </g>
   <g>
    <path class="fil1" d="M21529.68 -1.33l4284.96 0 2187.18 0 5803.39 0 3956.3 0 5.63 0c387.2,0 703.97,316.78 703.97,703.97l0 9686.04c0,387.19 -316.77,703.97 -703.97,703.97l-5.63 0 -3977.13 0 -5802.02 0 -2152.93 0 -4314.3 0c19.94,-777.62 105.28,-2584.14 -273.92,-3233.25 -456.82,-781.98 -1305.86,-1319.98 -2226.49,-1277.1 -411.38,19.15 -787.39,126.29 -1158.78,300.12 -990.89,463.79 -1356.71,978.19 -2569.02,782.46 -1092.8,-176.43 -1402.36,-1203.2 -1395.78,-2187.25 6.56,-978.3 401.11,-1946.67 1470.47,-2085.63 1480.9,-192.43 2432.21,1117.9 3806,1120.32 533.29,0.95 998.4,-203.92 1401.73,-544.73 246,-207.84 681.66,-664.63 805.55,-947.73 124.06,-283.56 125.69,-872.4 134.58,-1186.38 17.3,-610.63 19.57,-1223.14 20.21,-1833.99l0 -0.82z"/>
    <path class="fil1" d="M705.37 -1.33l20053.89 0c-1.46,1375.05 -21.55,2555.49 -90.19,2712.37 -66.32,151.55 -470.44,561.19 -596.96,668.08 -1440.22,1216.93 -2570.47,-1042.07 -4809.77,-751.11 -1348.46,175.23 -2131.31,1311.36 -2141.59,2844.45 -10.5,1567.47 680.74,2733.01 2043.39,2953 2014.36,325.2 2538.38,-1010.79 3886.41,-1073.57 726.8,-33.84 1271.62,461.65 1525.44,896.13 199.53,341.58 201.69,1503.11 168.47,2844.63l-20039.09 0c-387.14,0 -703.96,-316.78 -703.96,-703.97l0 -9686.04c0,-387.19 316.77,-703.97 703.96,-703.97z"/>
   </g>
   <g>
    <g>
     <path class="fil2" d="M3778.75 5554.12l60.65 257.48c16.98,36.93 52.97,51.74 107.71,51.35l477.25 -0.06c55.21,0 105.59,-4.43 142.05,17.01 76.56,44.99 68.94,144.01 -0.49,213.44 -27.29,27.29 -60.55,51.16 -108.94,54.79 -200.84,15.07 -444.1,-18.72 -637.5,12.78 -240.32,39.15 -474.84,165.49 -592.77,385 -88.56,164.83 -140.34,336.04 -140.34,533.33 0,251.37 149.72,405.23 359.18,464.2 69.84,19.66 153.51,31.7 244.32,31.7l968.41 0c147.59,0 294.83,-105.65 340.99,-243.79 34.19,-102.32 121.64,-569.82 157.75,-726.45 19.1,-82.91 32.26,-160.01 51.46,-243.27l95.4 -494.07c136.45,0 337.03,-41.94 302.19,147.78 -5.78,31.45 -14.56,62.98 -20.3,92.01 -44.36,224.75 -97.78,446.64 -142.71,671.31 -12.3,61.51 -27.69,127.11 -40.55,188.69 -37.91,181.45 -61.46,397.18 104.41,521.71 84.54,63.48 203.72,90.76 348.99,90.76l453.8 0c106.8,0 150.63,-76.26 194.62,-142.23 23.5,-35.25 44.73,-67.09 67.37,-101.04 31.87,-47.8 86.76,-117.11 31.89,-172.24 -17.37,-17.46 -35.3,-19.91 -69.21,-19.69 -67.61,0.45 -295.74,7.65 -346.14,-4.72 -123.05,-30.2 -68.98,-180.66 -49.8,-264.67 61.32,-268.59 115.35,-542.43 170.93,-811.52 24.24,-117.34 57.98,-196.15 196.83,-196.15l481.86 0c0,23.58 -9.23,53.59 -13.59,75.29l-112.72 528.22c-35.85,150.39 -62.69,300.21 -96.27,451.09 -28.95,130.08 -27.86,256.89 23.36,379.71 78.46,188.14 276.46,273.27 475.24,273.27l720.46 0c186.45,0 348.71,-64.5 489.26,-175.05 43.13,-33.92 64.8,-63.09 101.35,-99.82l79.33 -107.81c3.53,-4.95 5.62,-7.07 8.41,-10.29 29.01,124.5 87.34,229.19 196.69,294.53 106.47,63.63 228.17,98.44 397.46,98.44l973.08 0c159.16,0 294.39,-126.82 336.23,-243.88 12.06,-33.76 20.4,-81.97 27.48,-117.55 8.27,-41.58 17.52,-77.64 25.79,-119.23 47.33,-237.92 104.66,-480.28 151.99,-718.18 8.27,-41.59 17.52,-77.65 25.79,-119.24 20.42,-102.64 68.97,-272.07 68.97,-370.78 0,-93.58 -3.66,-158.51 -45.15,-240.23 -81.46,-160.48 -245.11,-213.57 -441.39,-213.57l-907.59 0c-70.68,0 -126.32,56.43 -126.32,121.64 0,25.7 21.78,98.55 28.41,130.65 42.6,206.22 42.31,178.12 299.07,178.12 106.05,0 212.09,0 318.13,0 55.5,0 105.55,-4.23 141.49,17.56 31.19,18.91 55,60.07 55,108.75 0,50.18 -51.41,106.26 -88.11,131.77 -51.25,35.62 -114.2,27.3 -197.27,27.3 -306.36,0 -607.38,-29.33 -863.64,142.18 -45.76,30.63 -86.14,61.39 -124.65,99.92 -10.49,10.5 -17.6,17.47 -28.13,28 -10.37,10.37 -17.89,22.75 -26.84,29.3l94.77 -443.24c14.11,-71.48 32.13,-145.69 46.78,-219.88 13.22,-66.96 45.59,-175.99 45.59,-244.46 0,-66.38 -58.56,-107.61 -121.64,-107.61l-388.3 0c-81.48,0 -155.76,61.74 -174.91,124.51 -27.06,88.74 -132.71,621.78 -162.86,749.41 -38.54,163.1 -68.82,336.43 -107.6,500.57 -22.87,96.79 -30.16,185.82 -95.41,250.79l-17.04 15.71c-13.95,13.3 -25.56,21.46 -42.9,31.95 -83.47,50.42 -208.94,34.64 -311.55,34.64 -92.16,0 -177.77,-56.62 -177.77,-154.38 0,-80.78 299.41,-1351.07 299.41,-1431.56 0,-147.03 -158.24,-121.64 -261.98,-121.64 -105.31,0 -885.22,6.09 -929.31,-1.68 -44.74,-7.87 -85.89,-50.09 -85.89,-101.24 0,-58.02 22.52,-113.99 33.95,-171.9 8.68,-43.97 36.23,-131.44 36.23,-174.29 0,-71.1 -61.2,-116.96 -131,-116.96l-392.97 0c-61.77,0 -99.95,19.06 -134.32,48.14 -106.22,89.86 -81.22,300.98 -132.31,415.05 -51.37,114.71 -146.82,102.88 -262.02,102.88l-1459.63 0c-56.59,0 -129.74,-7.97 -171.76,10.69 -40.89,18.17 -76.19,53.83 -76.19,110.95zm5888.15 976.98l240.49 0c154.73,0 196.09,30.85 170.32,171.77l-43.86 239.76c-31.2,111.66 -116.93,153.7 -239.76,148.4l-257.3 0.73c-143.67,-18.81 -199.16,-109.6 -173.25,-266.81 40.85,-178.03 131.91,-289.33 303.36,-293.85zm-5578.86 0l240.49 0c154.73,0 196.09,30.85 170.32,171.77l-43.86 239.76c-31.2,111.66 -116.93,153.7 -239.76,148.4l-257.3 0.73c-143.67,-18.81 -199.16,-109.6 -173.25,-266.81 40.85,-178.03 131.91,-289.33 303.36,-293.85z"/>
     <path class="fil2" d="M7287.48 3603.27c0,66.08 108.47,290.41 142.32,372.29 16.49,39.89 38.51,77.86 53.51,114.91 17.6,43.47 31.13,70.8 65.33,98.41 51.89,41.87 97.79,28.09 131.77,27.2l301.47 -30.68c50.89,-7.04 97.16,-12.27 143.7,-20.05 54.58,-9.12 96.67,-8.26 115.62,-52.82 19.4,-45.6 -3.9,-84.22 -18.66,-125.04l-142.46 -437.66c-43.88,-154.68 -79.9,-151.28 -214.49,-121.65l-265.01 57.79c-36.39,7.54 -242.39,45.08 -266.51,56.29 -19.59,9.11 -46.59,33.33 -46.59,61.01z"/>
     <path class="fil2" d="M8241.85 2312.06c0,28.35 101.67,393.9 117.46,448.61 10.95,37.95 23.86,66.48 65.29,75.38 42.37,9.1 276.86,-65.65 336.54,-79.55 0.87,38.92 19.43,124.47 54.61,142.09 24.92,12.48 49.39,0.82 75.83,-6.97 24.73,-7.27 49.66,-13.2 77.06,-21.19 52.75,-15.38 101.44,-26.65 154.7,-41.78 39.68,-11.28 124.34,-16.06 124.34,-76.83l-66.08 -219.3c-11.85,-35.23 -22.53,-72.25 -35.08,-109.95 -5.53,-16.64 -11.02,-38.88 -19.48,-50.68 -44.93,-62.7 -147.8,3.87 -225.55,10.34 -11.82,-50.73 -27.19,-106.15 -41.54,-154.95 -6.22,-21.16 -14.58,-59.06 -23.88,-74.36 -41.89,-68.93 -134.77,-23.53 -214.34,-3.66 -47.23,11.8 -94.37,25.95 -144.07,38.38 -31.6,7.9 -181.98,46.26 -204.01,62.65 -14.68,10.92 -31.8,37.94 -31.8,61.77z"/>
     <path class="fil2" d="M9243 4768.16c0,-40.38 -83.79,-482.79 -94.72,-536.85 -11.83,-58.49 -14.56,-126.42 -68.46,-146.96 -30.39,-11.58 -45.81,-2.91 -79.11,6.44 -80.76,22.68 -156.72,49.82 -246.09,72.03 -59.04,14.67 -108.86,27.97 -169.27,41.26 -65.21,14.35 -119.83,14.42 -130.74,84.83 -4.44,28.7 34.5,130.93 45.92,159.76 20.36,51.46 35.9,105.82 54.17,156.35l84.8 233.32c10.13,25.55 17.77,52.21 31.17,76.43 38.02,68.72 81.83,63.22 136.64,53.95 59.51,-10.06 113.72,-24.21 171.87,-38.66l118.79 -35.58c65.7,-19.66 145.03,-39.23 145.03,-126.32z"/>
     <path class="fil2" d="M6459.42 3079.3c0,59.62 42.71,226.29 61.37,284.82 6.43,20.18 12.42,41.38 19.86,64.35 14.7,45.42 28.37,97.92 59.78,118 51.92,33.19 109.06,15.41 159.67,6.62l446.67 -81.98c60.02,-12.06 121.08,-11.86 143.11,-67.54 14.51,-36.64 -16.28,-107.02 -32.66,-162.21 -33.31,-112.21 -62.47,-217.71 -87.88,-333.17 -4.98,-22.66 -11.84,-65.78 -19.89,-83.02 -43.58,-93.31 -168.32,-18.2 -261.71,12.64l-269.12 95.79c-75.11,28.06 -219.2,58.36 -219.2,145.7z"/>
     <path class="fil2" d="M7638.35 4370.51c0,36.73 31.97,82.44 54.7,123.08 21.39,38.27 41.37,71.87 63.73,109.36l65.51 107.58c45.73,77.34 117.02,204.94 189.25,250.52 60.38,38.1 148.15,29.63 222.23,39.75l171.82 5.96c42.81,0 68.2,-4.02 107.77,-4.51 100.87,-1.26 49.97,-106.49 30.6,-152.58 -59.57,-141.79 -117.64,-302.8 -173.83,-448.39 -17.45,-45.22 -36.58,-129.01 -123.6,-129.01 -58.31,0 -287.24,38.64 -397.65,42.11 -21.38,0.67 -20.18,3.01 -37.69,4.42 -15.1,1.21 -30.62,-0.75 -45.84,0.93 -48.24,5.35 -127,-3.34 -127,50.78z"/>
     <path class="fil2" d="M7137.77 4234.84l196.49 0c32.33,0 65.5,-21.39 65.5,-51.46 0,-16.69 -71.5,-162.08 -87.3,-193.41 -46,-91.25 -106.29,-236.1 -142.43,-330.07 -13.24,-34.44 -64.54,-73.83 -115.24,-69.55 -20.63,1.74 -55.48,9.48 -80.1,13.58 -25.49,4.23 -53.64,8.96 -80.19,13.37 -107.58,17.87 -218.63,36.09 -327.74,51.2 -59.3,8.22 -204.08,11.08 -182.76,89.28 4.06,14.91 8.91,18.59 16.07,31.15l84.2 149.72c23.44,39.54 48.58,79.64 75.37,116.44 14.09,19.37 26.05,35.07 39.2,54.36 31.29,45.92 50.01,66.61 97.53,89.6 20.08,9.72 50.44,20.43 76.57,21.68 119.76,5.73 237.12,14.11 364.83,14.11z"/>
     <path class="fil2" d="M9228.97 2915.56c0,25.73 32.21,127.26 41.14,160.03l43.07 158.09 -160.4 50.12c-65.74,27.43 -37.94,92.09 -24.91,149.22l55.42 267.39c20.58,100.05 66.29,60.55 200.78,6.5l106.83 -47.55c54.73,-27.22 134.8,-39.76 119.02,-142.25 -5.13,-33.34 -4,-65.2 -8.66,-99 -4.31,-31.22 -9.77,-67.9 -12.06,-95.54 22.24,-0.5 70.25,-19.03 95.25,-26.38 34.02,-10.02 60.85,-21.53 94.87,-31.44 36.65,-10.68 58.13,-16.12 74.83,-46.84 17.88,-32.88 3.7,-62.88 -4.13,-100.02 -13.5,-63.99 -33.28,-132.45 -51.31,-196.64 -49.65,-176.71 -46.72,-174.46 -231.98,-131.08 -42.1,9.86 -286.3,58.79 -308.53,75.09 -12.42,9.11 -29.23,30.4 -29.23,50.3z"/>
     <path class="fil2" d="M8134.25 8169.29l0 191.8 -425.73 0c-158.91,0 -236.81,177.83 -127.57,286.64 31.92,31.81 57.22,39.33 107.87,51.18 41.59,9.74 86.1,18.74 130.81,28.26 68.17,14.53 149.5,17.6 99.42,92.4l-327.76 -0.28c-48.12,-0.76 -37.15,-14.29 -37.15,140.63l341.51 0c54.47,0 101.69,-19.82 129.92,-47.86 40.69,-40.4 57.21,-67.78 57.21,-134.59 0,-153.53 -177.95,-164.87 -288.06,-189.13 -95.63,-21.07 -114.27,-12.72 -114.27,-63.5 0,-10.91 12.49,-23.4 23.39,-23.4l430.41 0 0 252.64c0,244.16 146.88,205.84 388.3,205.84 10.78,0 14.03,-3.26 14.03,-14.04 0,-157.1 29.31,-126.31 -140.35,-126.31 -145.12,0 -116.96,33.63 -116.96,-318.13l243.28 0c10.78,0 14.03,-3.25 14.03,-14.03l0 -112.28c0,-10.78 -3.25,-14.04 -14.03,-14.04l-243.28 0 0 -205.84 -130.99 0c-10.78,0 -14.03,3.26 -14.03,14.04z"/>
     <path class="fil2" d="M8223.13 3233.68c0,18.37 30.8,113.68 38.04,135.06l84.59 270.96c40.09,145.18 82.19,128.6 203.96,98.35 86.21,-21.43 194.78,-48.96 278.73,-76.82 92.95,-30.85 103.79,-53.92 80.42,-158.91 -5.58,-25.07 -10.58,-50.93 -15.81,-73.08 -12.08,-51.24 -69.1,-332.4 -88.49,-355.95 -40.32,-48.97 -77.98,-29.23 -129.27,-14.33 -66.96,19.47 -393.46,99.35 -417.59,115.73 -19.51,13.24 -34.58,37.95 -34.58,58.99z"/>
     <path class="fil2" d="M7834.84 4941.26c30.87,0 22.38,-35.85 5.74,-61.87l-132.06 -190.76c-57.21,-85.81 -110.3,-170.8 -164.62,-261.1 -79.95,-132.92 -181.2,-91.25 -326.62,-99.1 -20.82,-1.13 -22.44,-4.6 -46.57,-4.89 -16.41,-0.19 -35.3,1.28 -51.41,-0.06l-299.65 -23.14c-32.29,0 -49.84,17.23 -20.34,53.05 18.88,22.91 31.4,35.2 51.91,55.72l189.41 184.85c12.06,11.15 18.19,13.41 30.5,25.64 63,62.66 176.1,144.47 259.06,176.02 53.22,20.24 104.47,36.4 160.22,54.99 48.89,16.3 292.71,90.65 344.43,90.65z"/>
     <path class="fil2" d="M7395.08 2761.18c0,48.59 77.99,315.49 94.1,364.37 32.27,97.93 99.43,60.59 209.6,37.58 41.38,-8.65 83.49,-18.67 125.72,-28.66 40.67,-9.63 82.27,-18.19 125.42,-28.98 92.67,-23.14 97.55,-42.62 72.05,-133.79l-87.01 -324.69c-24.27,-98.3 -58,-86.45 -140.55,-61.93 -24.51,7.28 -40.88,13.04 -64.47,19.74 -44.2,12.54 -84.41,26 -124.89,38.84 -42.78,13.59 -81.83,27.2 -124.78,38.97 -38.16,10.46 -85.19,29.09 -85.19,78.55z"/>
     <path class="fil2" d="M8564.65 8646.47c0,60.56 2.83,97.69 28.06,154.39 44.43,99.81 147.14,173.09 261.99,173.09 85.57,0 151.13,-7.67 218.48,-62.22 39.67,-32.13 90.67,-91.97 94.97,-143.62l-145.03 0c-52.19,98.63 -199.2,90.93 -263.23,33.99 -29.75,-26.45 -41.66,-58.07 -50.21,-94.81l467.82 0c21.05,-87.89 -27.05,-205.85 -69.42,-258.05 -21.43,-26.38 -55.62,-54.61 -87.97,-71.1 -110.96,-56.56 -270.03,-41.58 -358.45,47.22 -58.56,58.8 -97.01,130.06 -97.01,221.11zm318.81 -182.71c78.29,0 144.11,49.35 163.02,116.23l-326.04 0c18.91,-66.88 84.73,-116.23 163.02,-116.23z"/>
     <path class="fil2" d="M9907.32 8945.88c0,10.78 3.26,14.04 14.04,14.04 188.9,0 109.2,46.41 126.26,-308.82 3.16,-65.85 37.87,-121.59 90.36,-148.23 59.54,-30.21 142.96,-13.55 178.43,38.61 23.47,34.52 30.67,77.36 30.67,133.06l0 285.38 126.31 0c10.78,0 14.04,-3.26 14.04,-14.04l0 -318.12c0,-284.92 -276.17,-354.18 -424.14,-199.59 -12.4,12.95 0.3,6.7 -15.62,12.46l0 -341.52 -140.35 0 0 846.77z"/>
     <path class="fil2" d="M7044.2 8440.63l0 -79.54 -140.34 0 0 584.79c0,10.78 3.25,14.04 14.03,14.04l126.31 0 0 -266.66c0,-61.46 9.81,-110.17 36.64,-145.82 66.43,-88.25 264.07,-99.52 262.84,113.01l-0.07 233.97c-0.13,79.24 -23.84,65.5 126.32,65.5 10.78,0 14.04,-3.26 14.04,-14.04l0 -341.51c0,-184.37 -156.39,-294.47 -318.8,-243.93 -83.36,25.94 -87.67,57.89 -120.97,80.19z"/>
     <path class="fil2" d="M9228.97 8646.47c0,100.53 25.76,176.85 85.24,237.56 142.54,145.48 440.48,122.02 521.26,-108.27 19.64,-55.97 29.22,-45.08 -124.64,-45.08 -15.67,0 -18.9,20.74 -26.51,34.3 -7.31,13.02 -19.03,27.84 -29.42,36.09 -72.29,57.41 -188.48,48.15 -240.94,-16.79 -60.27,-74.59 -59.21,-174.12 -0.74,-248.29 46.95,-59.55 162.04,-74.89 236.25,-19.97 17.75,13.13 45.11,43 47.32,69.64l149.71 0c-6.13,-73.73 -62.6,-144.08 -110.17,-179.89 -190.19,-143.16 -507.36,-29.87 -507.36,240.7z"/>
     <path class="fil2" d="M6258.25 8618.4l65.5 0 0 -28.07c49.29,33.01 32.24,32.75 102.92,32.75 43.67,0 89.65,-38.06 102.53,-75.24 17.74,-51.25 8.68,-102.14 -22.12,-140.84 -30.12,-37.86 -70.27,-41.23 -113.16,-41.23 -37.69,0 -49.27,18.76 -70.17,32.75l0 -135.67 -65.5 0 0 355.55zm148.62 -196.64c43.39,0 78.57,33.05 78.57,73.83 0,40.77 -35.18,73.82 -78.57,73.82 -43.4,0 -78.58,-33.05 -78.58,-73.82 0,-40.78 35.18,-73.83 78.58,-73.83z"/>
     <path class="fil2" d="M6599.77 8660.51l-60.82 0c0,70.45 -8.99,60.82 46.78,60.82 83.43,0 89,-56.49 126.32,-149.71l60.93 -149.58c6.01,-13.56 17.15,-34.26 18.6,-51.59l-65.5 0c-5.04,21.66 -58.75,164.73 -70.17,173.1 -1.42,-16.97 -59.71,-162.15 -65.5,-173.1l-65.5 0c10.79,20.39 23.23,54.07 32.09,75.52l64.75 150.69c8.23,17.58 10.83,18.86 5.31,34.71 -4.3,12.36 -12.46,29.14 -27.29,29.14z"/>
    </g>
    <g>
     <path class="fil2" d="M24919.22 5639.39c-134.27,69.54 -275.06,117.43 -430.22,117.43 -355.55,0 -562.44,-193.61 -562.44,-559.32l0 -37.5c0,-482.02 400.99,-559.32 806.28,-559.32l178.42 0 0 -72.14c0,-220.73 -56.58,-300.33 -281.59,-300.33 -159.23,0 -314.71,8.89 -473,24.73 -1.86,0.18 -3.43,0.25 -5.29,0.25 -5.21,0 -10.4,0 -15.62,0 -62.79,0 -109.17,-36.47 -109.17,-102.89l0 -109.43c0,-67.46 48.58,-102.82 109.66,-111.53 166.14,-28.36 324.61,-41.39 493.42,-41.39 429.37,0 662.47,208.32 662.47,640.59l0 1090.99c0,63.59 -51.82,115.41 -115.41,115.41l-143.81 0c-56.81,0 -104.23,-41.38 -113.7,-95.55zm2054.93 -1343.28c13.98,69.01 18.83,140.74 18.83,210.55l0 1112.87c0,61.24 -45.96,115.41 -109.17,115.41l-165.69 0c-63.59,0 -106.04,-54.93 -106.04,-115.41l0 -1112.87c0,-67.77 -2.25,-205.52 -66.25,-249.88 -32.71,-22.67 -83.15,-25.45 -121.55,-25.45 -102.72,0 -230.78,54.4 -328.48,101.88l0 1286.32c0,61.24 -45.94,115.41 -109.17,115.41l-165.67 0c-63.61,0 -106.05,-54.93 -106.05,-115.41l0 -1594.28c0,-63.14 48.23,-115.43 112.29,-115.43l156.31 0c53.56,0 96.06,36.56 108.54,85.45 125.68,-66.46 264.27,-110.44 407.25,-110.44 127,0 236.31,31.28 325.05,117.2 156.98,-69.47 335.74,-117.2 506.47,-117.2 390.8,0 559.32,251.7 559.32,628.09l0 1106.61c0,63.59 -51.83,115.41 -115.42,115.41l-150.05 0c-63.58,0 -115.43,-51.82 -115.43,-115.41l0 -1106.61c0,-173.65 -47.95,-281.59 -231.57,-281.59 -98.18,0 -207.43,30.27 -303.52,64.78zm1719.65 -386.29c102.68,-14.94 212.1,-21.87 312.83,-21.87 512.62,0 734.37,333.49 734.37,818.76l0 225.08c0,481.25 -221.55,825.03 -734.37,825.03 -196.16,0 -392.58,-16.81 -583.87,-53.86 -75.28,-12.54 -109.86,-47.44 -109.86,-124.07l0 -2188.22c0,-61.55 46.51,-112.29 109.17,-112.29l159.43 0c61.88,0 112.3,50.13 112.3,112.29l0 519.15zm1835.23 -284.7c0,63.57 -51.83,115.42 -115.42,115.42l-159.43 0c-63.59,0 -115.41,-51.85 -115.41,-115.42l0 -250.09c0,-63.59 51.82,-115.41 115.41,-115.41l159.43 0c63.59,0 115.42,51.82 115.42,115.41l0 250.09zm-6.25 1994.41c0,63.59 -51.84,115.41 -115.41,115.41l-150.05 0c-63.59,0 -115.43,-51.82 -115.43,-115.41l0 -1594.28c0,-63.59 51.84,-115.43 115.43,-115.43l150.05 0c63.57,0 115.41,51.84 115.41,115.43l0 1594.28zm841.17 112.33l0 503.49c0,61.87 -50.13,112.29 -112.3,112.29l-159.42 0c-62.31,0 -109.18,-50.63 -109.18,-112.29l0 -2150.7c0,-74.52 35.68,-107.67 105.95,-123.28 185.24,-45.44 396.66,-73.42 587.78,-73.42 510.96,0 734.39,345.31 734.39,825.02l0 225.08c0,486.78 -219.95,818.77 -734.39,818.77 -100.49,0 -210.13,-9.47 -312.83,-24.96zm2343.86 -92.47c-134.27,69.54 -275.08,117.43 -430.24,117.43 -355.55,0 -562.42,-193.61 -562.42,-559.32l0 -37.5c0,-482.02 400.99,-559.32 806.26,-559.32l178.42 0 0 -72.14c0,-220.73 -56.58,-300.33 -281.59,-300.33 -159.23,0 -314.69,8.89 -473,24.73 -1.84,0.18 -3.41,0.25 -5.27,0.25 -5.21,0 -10.42,0 -15.64,0 -62.79,0 -109.15,-36.47 -109.15,-102.89l0 -109.43c0,-67.46 48.56,-102.82 109.64,-111.53 166.16,-28.36 324.63,-41.39 493.42,-41.39 429.37,0 662.49,208.32 662.49,640.59l0 1090.99c0,63.59 -51.84,115.41 -115.43,115.41l-143.79 0c-56.83,0 -104.25,-41.38 -113.7,-95.55zm1176.56 -1299.34l0 1279.48c0,62.02 -53.36,115.41 -115.41,115.41l-153.17 0c-62.31,0 -112.29,-53.72 -112.29,-115.41l0 -1594.28c0,-63.14 48.23,-115.43 112.29,-115.43l146.93 0c54.06,0 96.85,37.25 108.9,86.84 119.82,-68.89 248.09,-108.71 391.25,-108.71 68.22,0 118.55,37.85 118.55,109.18l0 128.15c0,70.01 -52.49,106.05 -118.55,106.05 -140.96,0 -258.64,40.46 -378.5,108.72zm-9973.11 981.96l0 -418.6 -178.42 0c-103.44,0 -319.69,1.05 -388.89,96.69 -31.3,43.22 -36.51,105.15 -36.51,156.76l0 37.52c0,176.88 63.12,231.57 234.71,231.57 134.62,0 252.11,-43.18 369.11,-103.94zm3782.54 -1073.31l0 1147.16c103.6,8.41 209.88,14.47 312.83,14.47 86.32,0 178.34,-15.42 243.21,-77.1 98.53,-93.68 110.29,-274.47 110.29,-401.44l0 -225.08c0,-126.14 -12.94,-301.85 -110.71,-394.71 -64.92,-61.68 -156.33,-77.55 -242.79,-77.55 -96.74,0 -212.63,0.94 -312.83,14.25zm2670.15 -0.38l0 1148.19c100.51,15.23 215.82,23.18 312.83,23.18 85.69,0 174.5,-16.5 238.88,-77.19 100.75,-94.96 114.62,-274.93 114.62,-404.45l0 -225.08c0,-255.52 -50.55,-487.9 -353.5,-487.9 -101.11,0 -210.89,7.74 -312.83,23.25zm2335.88 1073.69l0 -418.6 -178.42 0c-103.42,0 -319.67,1.05 -388.89,96.69 -31.3,43.22 -36.49,105.15 -36.49,156.76l0 37.52c0,176.88 63.1,231.57 234.69,231.57 134.62,0 252.13,-43.18 369.11,-103.94z"/>
     <g>
      <path class="fil3" d="M31724.17 7287.79c39.07,-7.37 66.86,12.77 59.4,53.83l-10.88 65.23c-5.44,37.86 -26.18,52.85 -62.43,59.49 -76.23,13.99 -158.49,20.44 -235.92,20.44 -221.9,0 -342.37,-152.97 -342.37,-366.08 0,-34.97 3.67,-69.67 9.44,-104.15l23.73 -142.35c45.39,-272.44 198.88,-462.69 489.88,-462.69 75.27,0 154.62,6.61 228.24,20.38 42.07,7.03 54.4,25.94 48.11,66.65l-11.02 66.02c-7.08,39.03 -31.02,52.5 -69.37,46.1 -74.81,-8.68 -144.26,-12.57 -219.69,-12.57 -159.01,0 -236.82,143.69 -260.17,283.67l-23.73 142.36c-5.79,34.81 -10.61,70.35 -10.61,105.7 0,114.76 44.96,170.41 161.29,170.41 77.51,0 150.41,-3.89 226.1,-12.44zm779.1 116.1c-82.71,54.75 -150,82.89 -262.48,82.89 -204.81,0 -307.7,-150.27 -307.7,-346.02 0,-38.18 4.21,-76.34 11.34,-113.59l32.85 -180.67c50.29,-276.61 216,-434.99 497.09,-434.99 107.38,0 221.19,16.22 324.33,42.54 40.33,8.95 55.03,27.37 48.71,68.41l-156.94 896.01c-6.15,35.19 -27.62,55.55 -64.63,55.55l-72.99 0c-43.13,0 -55.65,-28.09 -50.1,-66.84l0.52 -3.29zm725.62 -739.92l-131.47 754.48c-5.38,30.99 -35.07,55.57 -66.45,55.57l-89.43 0c-34.42,0 -56.49,-31.35 -50.04,-63.47l162.41 -930.68c5.36,-30.83 33.06,-55.57 64.63,-55.57l85.78 0c31.19,0 51.3,23.51 51.27,51.57 72.82,-45.31 147.5,-64.36 238.88,-64.36l3.65 0c39.05,0 62.81,19.79 55.57,59.65l-12.84 76.99c-6.18,34.1 -33.29,49.94 -66.43,49.94l-5.5 0c-96.75,0 -159.39,16.35 -240.03,65.88zm810.27 803.65c-57.23,10.78 -128.59,19.16 -179.7,19.16 -223.67,0 -362.46,-119.44 -362.46,-349.67 0,-41.99 4.36,-84.66 11.3,-126.3l23.73 -133.21c54.1,-303.76 190.77,-466.09 508.08,-466.09 104.34,0 223.75,17.93 324.09,42.48 41.91,8.82 55.4,26.62 48.95,68.5l-164.23 930.68c-50.02,283.46 -173.62,378.52 -457,378.52 -92.09,0 -222.15,-7.35 -310.56,-33.61 -36.42,-9.09 -52.66,-26.26 -46.08,-64.5l9.07 -52.55c6.23,-39.95 30.39,-52.77 69.25,-48.19 97.73,11.51 203.89,21.41 302.05,21.41 149.97,0 198.01,-45.44 223.51,-186.63zm1347.02 -690c0,35.35 -3.89,70.92 -9.47,106.08l-23.7 138.68c-48.88,285.96 -206.23,464.4 -508.14,464.4 -225.57,0 -358.78,-146.08 -358.78,-367.9 0,-34.89 3.97,-69.56 9.44,-104.29l23.73 -138.68c49.07,-286.72 205.27,-464.4 506.28,-464.4 227.21,0 360.64,142.11 360.64,366.11zm-2761.43 -171.15c-50.51,-8.63 -97.43,-13.88 -150.38,-13.88 -184.43,0 -264.66,105.59 -294.86,278.42l-32.93 188.51c-5.2,25.88 -6.86,53.04 -6.86,79.41 0,94.41 33.55,166.77 135.74,166.77 88.99,0 171.37,-48.3 243.62,-96.47l105.67 -602.76zm1565.74 1.85c-57.31,-9.63 -116.28,-15.73 -174.11,-15.73 -184.02,0 -248.95,127.69 -278.43,293.07l-23.73 133.21c-7.32,41.06 -12.41,83.76 -12.41,125.53 0,128.81 59.6,161.3 181.36,161.3 56.11,0 130.16,-5.47 188.07,-16.46l119.25 -680.92zm989.06 167.47c0,-123.66 -53.21,-177.7 -177.74,-177.7 -165.62,0 -251.02,136.26 -276.57,285.61l-23.78 138.9c-6.21,34.18 -10.56,68.79 -10.56,103.57 0,123.17 54.78,174.06 177.7,174.06 163.5,0 253.2,-137.97 278.43,-285.64l23.78 -139.11c6.31,-33.07 8.74,-66.05 8.74,-99.69z"/>
     </g>
     <path class="fil4" d="M31631.29 6575.07c89.42,0 144.15,3.64 222.63,12.76 32.85,5.47 40.14,-7.29 43.79,-27.38l10.96 -65.69c3.65,-23.73 3.65,-34.67 -29.2,-40.14 -58.4,-10.94 -140.53,-20.09 -224.45,-20.09 -250.02,0 -417.9,147.83 -467.18,443.45l-23.73 142.36c-5.47,34.67 -9.12,67.51 -9.12,100.36 0,195.26 105.83,343.06 319.35,343.06 85.78,0 171.53,-9.12 231.76,-20.06 29.2,-5.47 40.14,-14.61 43.81,-40.14l10.94 -65.72c3.65,-20.06 -3.65,-32.85 -32.85,-27.35 -80.3,9.12 -140.53,12.76 -229.93,12.76 -118.62,0 -184.31,-54.75 -184.31,-193.43 0,-32.85 3.64,-67.52 10.94,-109.48l23.73 -142.36c31.02,-187.96 136.85,-302.91 282.86,-302.91zm843.08 -140.54c-218.97,0 -417.9,100.37 -474.45,416.07l-32.84 180.68c-7.33,38.31 -10.97,74.81 -10.97,109.48 0,224.46 129.56,323 284.68,323 122.27,0 186.14,-32.85 293.8,-109.48l-9.12 56.57c-3.64,25.56 0,40.14 27.38,40.14l72.99 0c29.2,0 38.32,-16.43 41.96,-36.49l156.94 -896.01c3.65,-23.73 1.83,-34.67 -31.02,-41.97 -93.07,-23.73 -209.85,-41.99 -319.35,-41.99zm177.02 153.3l-111.33 635.06c-100.36,67.52 -178.82,105.83 -264.6,105.83 -87.6,0 -158.76,-49.25 -158.76,-189.79 0,-27.37 1.82,-56.57 7.29,-83.92l32.85 -187.97c34.69,-193.43 129.59,-297.47 317.53,-297.47 76.66,0 127.74,9.14 177.02,18.26l0 0zm556.58 62.05c89.42,-56.58 156.94,-74.81 260.95,-74.81l5.5 0c25.52,0 40.14,-10.97 43.78,-31.03l12.77 -76.66c3.64,-20.06 -1.83,-32.85 -32.85,-32.85l-3.65 0c-83.92,0 -171.53,14.62 -270.07,91.25l7.3 -41.96c3.64,-18.26 -5.47,-36.5 -27.38,-36.5l-85.78 0c-20.05,0 -38.31,16.41 -41.96,36.5l-162.41 930.68c-3.65,18.23 7.29,36.49 27.37,36.49l89.43 0c20.06,0 40.14,-16.43 43.79,-36.49l133.21 -764.62zm323 364.96c-7.3,43.81 -10.94,85.78 -10.94,122.27 0,229.93 142.32,326.65 339.43,326.65 54.73,0 160.59,-14.59 208.03,-25.53l-3.65 21.88c-27.38,164.86 -85.78,217.17 -248.19,217.17 -96.72,0 -242.69,-14.29 -304.74,-21.58 -31.02,-3.68 -40.17,5.47 -43.81,28.87l-9.12 52.93c-3.65,21.91 0,31.02 29.2,38.32 49.26,14.61 166.06,32.84 304.74,32.84 262.8,0 385.05,-78.45 434.33,-359.49l164.23 -930.68c3.65,-23.73 3.65,-34.67 -31.02,-41.97 -82.1,-20.08 -211.67,-41.99 -319.35,-41.99 -273.72,0 -427.01,118.63 -485.41,447.1l-23.73 133.21zm686.16 -425.19l-125.91 719.02c-58.41,12.76 -156.95,20.05 -208.05,20.05 -138.68,0 -204.38,-45.61 -204.38,-184.32 0,-36.49 3.65,-80.28 12.76,-129.56l23.74 -133.21c38.31,-213.49 131.38,-312.06 301.09,-312.06 76.66,0 151.47,10.97 200.75,20.08zm1146.03 187.97c0,-200.73 -113.16,-343.09 -337.62,-343.09 -271.89,0 -432.48,149.65 -483.58,445.27l-23.73 138.69c-5.47,34.69 -9.12,67.54 -9.12,100.39 0,202.55 116.8,344.88 335.76,344.88 288.33,0 437.98,-167.88 485.44,-445.27l23.7 -138.69c5.5,-34.67 9.15,-69.34 9.15,-102.18zm-160.59 -1.83c0,31.03 -1.82,65.7 -9.14,104.01l-23.71 138.69c-31.02,178.84 -140.53,304.76 -301.12,304.76 -142.32,0 -200.73,-67.51 -200.73,-197.08 0,-32.85 3.65,-67.52 10.94,-107.68l23.73 -138.69c31.03,-186.14 140.51,-304.73 299.27,-304.73 142.36,0 200.76,69.34 200.76,200.72z"/>
    </g>
   </g>
   <path class="fil5 str0" d="M21169.49 49.96c3.88,896.9 -2.57,1759.82 -136.05,2646.68 -95.31,633.28 -775.88,1112.29 -1393.51,1339.58 -515.55,189.72 -1628.54,-117.59 -2601.05,-712.04 -882.5,-539.43 -2339.9,-308.94 -2745.42,117.98 -405.99,427.41 -973.39,1248.24 -810.46,2520.26"/>
   <path class="fil5 str0" d="M21169.49 11083.04c3.88,-896.9 -2.57,-1759.82 -136.05,-2646.68 -95.31,-633.28 -775.88,-1112.29 -1393.51,-1339.58 -515.55,-189.72 -1628.54,117.59 -2601.05,712.04 -882.5,539.43 -2339.87,308.94 -2745.42,-117.98 -405.99,-427.43 -830.12,-1208.72 -815.35,-1898.65"/>
  </g>
 </g>
</svg>
